# xmcd CD database file
# Copyright (C) 1993-2000  Ti Kan
#
# Track frame offsets:
#	150
#	10190
#	22577
#	30815
#	39992
#	49965
#	58975
#	71052
#	81110
#	90430
#	100450
#	111892
#	124142
#	133580
#	145227
#	155605
#	165427
#
# Disc length: 2337 seconds
#
# Revision: 3
# Processed by: cddbd v1.4PL0 Copyright (c) Steve Scherf et al.
# Submitted via: xmcd 2.6 PL0
#
DISCID=d6091f11
DTITLE=Johnny Cash - There You Go
DYEAR=1900
DGENRE=
TTITLE0=Hey Porter
TTITLE1=Give My Love To Rose
TTITLE2=Guess Things Happen That Way
TTITLE3=Luther Played The Boogie
TTITLE4=I Could Never Be Ashamed Of You
TTITLE5=Blue Train
TTITLE6=I Walk The Line
TTITLE7=The Ways Of A Woman In Love
TTITLE8=Down The Street To 301
TTITLE9=Goodbye Little Darlin'
TTITLE10=Thanks A Lot
TTITLE11=Folsom Prison Blues
TTITLE12=Rock Island Line
TTITLE13=You're The Nearest Thing To Heaven
TTITLE14=I Heard That Lonesome Whistle Blow
TTITLE15=Get Rhythm
TTITLE16=There You Go
EXTD=
EXTT0=
EXTT1=
EXTT2=
EXTT3=
EXTT4=
EXTT5=
EXTT6=
EXTT7=
EXTT8=
EXTT9=
EXTT10=
EXTT11=
EXTT12=
EXTT13=
EXTT14=
EXTT15=
EXTT16=
PLAYORDER=
